<svg xmlns="http://www.w3.org/2000/svg" version="1.1" width="1063px" height="1063px" style="shape-rendering:geometricPrecision; text-rendering:geometricPrecision; image-rendering:optimizeQuality; fill-rule:evenodd; clip-rule:evenodd" xmlns:xlink="http://www.w3.org/1999/xlink">
<g><path style="opacity:1" fill="#191919" d="M 660.5,511.5 C 661.751,510.528 661.418,509.861 659.5,509.5C 658.584,509.543 657.917,509.876 657.5,510.5C 560.28,529.048 471.614,566.881 391.5,624C 368.992,638.255 345.326,650.422 320.5,660.5C 318.805,658.465 317.472,656.132 316.5,653.5C 334.869,645.483 352.869,636.649 370.5,627C 393.5,612 416.5,597 439.5,582C 508.245,542.917 581.579,516.417 659.5,502.5C 661.552,501.947 661.885,500.947 660.5,499.5C 647.998,471.158 640.665,441.492 638.5,410.5C 638.799,408.396 638.466,406.396 637.5,404.5C 636.893,404.624 636.56,404.957 636.5,405.5C 588.04,424.894 542.04,448.728 498.5,477C 469.517,498.159 440.184,518.825 410.5,539C 361.842,569.078 310.675,594.245 257,614.5C 255.681,612.713 254.848,610.713 254.5,608.5C 254.5,607.833 254.5,607.167 254.5,606.5C 309.035,585.732 361.035,559.899 410.5,529C 437.111,510.722 463.444,492.055 489.5,473C 535.907,442.126 585.24,416.46 637.5,396C 636.529,384.89 636.362,373.723 637,362.5C 635.402,355.174 631.235,352.674 624.5,355C 611.488,374.345 595.488,390.678 576.5,404C 537.421,424.585 508.754,414.751 490.5,374.5C 463.734,376.109 438.067,382.609 413.5,394C 361.792,418.379 319.959,454.213 288,501.5C 268.033,532.565 256.533,566.565 253.5,603.5C 252.527,605.948 252.194,608.615 252.5,611.5C 250.563,662.329 262.397,709.663 288,753.5C 296.333,765.5 304.667,777.5 313,789.5C 316.686,796.055 318.852,803.055 319.5,810.5C 319.818,815.032 319.485,819.366 318.5,823.5C 316.265,822.772 314.432,821.439 313,819.5C 312.347,809.887 309.681,800.887 305,792.5C 273.17,753.397 253.503,708.73 246,658.5C 237.09,648.687 230.756,637.353 227,624.5C 203.159,601.982 175.659,585.149 144.5,574C 124.044,565.903 103.044,559.736 81.5,555.5C 81.5,541.167 81.5,526.833 81.5,512.5C 82.4731,510.052 82.8064,507.385 82.5,504.5C 84.1667,504.5 85.8333,504.5 87.5,504.5C 88.5,504.5 89.5,504.5 90.5,504.5C 89.234,519.153 89.234,533.819 90.5,548.5C 127.842,557.334 163.176,571.167 196.5,590C 205.614,596.114 214.448,602.614 223,609.5C 218.645,573.248 224.645,538.581 241,505.5C 277.207,435.96 331.374,385.794 403.5,355C 427.9,345.066 453.234,339.233 479.5,337.5C 463.541,269.435 465.041,201.768 484,134.5C 488.473,120.555 494.307,107.222 501.5,94.5C 502.043,94.44 502.376,94.1067 502.5,93.5C 500.701,92.2121 499.035,92.2121 497.5,93.5C 468.849,95.7474 440.683,100.747 413,108.5C 410.23,106.635 408.73,103.968 408.5,100.5C 442.587,91.4856 477.254,86.1523 512.5,84.5C 512.868,87.2876 513.368,89.9543 514,92.5C 507.641,101.214 502.308,110.547 498,120.5C 474.539,186.877 470.205,254.544 485,323.5C 489.939,337.355 493.606,351.355 496,365.5C 514.992,410.542 544.159,418.375 583.5,389C 597.304,376.866 609.304,363.2 619.5,348C 632.447,342.555 640.947,346.722 645,360.5C 642.161,411.303 651.328,459.803 672.5,506C 666.729,515.459 665.062,525.626 667.5,536.5C 667.081,537.672 666.415,538.672 665.5,539.5C 624.075,546.795 588.242,564.795 558,593.5C 539.279,613.608 527.446,637.275 522.5,664.5C 520.253,663.626 517.92,663.292 515.5,663.5C 519.309,636.554 530.142,612.887 548,592.5C 577.857,560.815 614.357,540.982 657.5,533C 658.082,525.797 659.082,518.63 660.5,511.5 Z M 244.5,633.5 C 244.806,636.385 244.473,639.052 243.5,641.5C 229.108,613.908 225.608,584.908 233,554.5C 241.932,517.969 258.265,485.303 282,456.5C 319.66,410.526 366.493,377.359 422.5,357C 442.002,350.533 462.002,346.7 482.5,345.5C 483.151,352.272 484.818,358.772 487.5,365C 431.999,372.373 382.999,394.04 340.5,430C 304.222,459.724 277.055,496.224 259,539.5C 248.157,569.898 243.324,601.231 244.5,633.5 Z M 254.5,606.5 C 253.596,605.791 253.263,604.791 253.5,603.5C 256.533,566.565 268.033,532.565 288,501.5C 319.959,454.213 361.792,418.379 413.5,394C 438.067,382.609 463.734,376.109 490.5,374.5C 508.754,414.751 537.421,424.585 576.5,404C 595.488,390.678 611.488,374.345 624.5,355C 631.235,352.674 635.402,355.174 637,362.5C 636.362,373.723 636.529,384.89 637.5,396C 585.24,416.46 535.907,442.126 489.5,473C 463.444,492.055 437.111,510.722 410.5,529C 361.035,559.899 309.035,585.732 254.5,606.5 Z"/></g>
<g><path style="opacity:1" fill="#a7a7a7" d="M 584.5,90.5 C 585.209,89.596 586.209,89.2627 587.5,89.5C 587.5,90.5 587.5,91.5 587.5,92.5C 586.778,91.4489 585.778,90.7822 584.5,90.5 Z"/></g>
<g><path style="opacity:1" fill="#141414" d="M 584.5,90.5 C 585.778,90.7822 586.778,91.4489 587.5,92.5C 588.523,95.3925 588.523,98.2258 587.5,101C 573.337,103.416 560.671,109.083 549.5,118C 538.675,127.784 536.175,139.284 542,152.5C 552.974,164.324 566.474,168.657 582.5,165.5C 583.272,161.548 583.605,157.548 583.5,153.5C 584.487,148.695 584.821,143.695 584.5,138.5C 586.5,138.5 588.5,138.5 590.5,138.5C 592.167,138.5 593.833,138.5 595.5,138.5C 595.609,145.196 595.276,151.863 594.5,158.5C 594.056,163.609 593.056,168.609 591.5,173.5C 572.785,178.112 555.118,175.612 538.5,166C 524.937,153.787 522.437,139.621 531,123.5C 544.239,105.286 562.073,94.2857 584.5,90.5 Z"/></g>
<g><path style="opacity:1" fill="#979797" d="M 497.5,93.5 C 499.035,92.2121 500.701,92.2121 502.5,93.5C 502.376,94.1067 502.043,94.44 501.5,94.5C 500.432,93.5655 499.099,93.2322 497.5,93.5 Z"/></g>
<g><path style="opacity:1" fill="#161616" d="M 666.5,103.5 C 667.649,103.791 668.316,104.624 668.5,106C 675.052,136.092 681.052,166.092 686.5,196C 682.595,197.359 678.595,198.192 674.5,198.5C 673.214,188.284 671.547,178.117 669.5,168C 669.245,166.674 668.578,165.674 667.5,165C 654.986,161.037 642.319,158.037 629.5,156C 622.667,163.5 615.833,171 609,178.5C 606.688,175.354 604.188,172.354 601.5,169.5C 623.188,147.479 644.854,125.479 666.5,103.5 Z M 660.5,123.5 C 661.167,124.5 661.833,125.5 662.5,126.5C 663.652,135.928 665.319,145.261 667.5,154.5C 667,154.833 666.5,155.167 666,155.5C 656.5,153 647,150.5 637.5,148C 644.977,139.688 652.644,131.522 660.5,123.5 Z"/></g>
<g><path style="opacity:1" fill="#898989" d="M 660.5,123.5 C 660.56,122.957 660.893,122.624 661.5,122.5C 662.429,123.689 662.762,125.022 662.5,126.5C 661.833,125.5 661.167,124.5 660.5,123.5 Z"/></g>
<g><path style="opacity:1" fill="#161616" d="M 353.5,124.5 C 370.135,122.642 378.302,129.976 378,146.5C 376.796,152.074 374.629,157.241 371.5,162C 383.869,169.182 396.202,176.348 408.5,183.5C 406.921,186.994 405.087,190.327 403,193.5C 387.89,185.032 373.057,176.199 358.5,167C 363.109,161.114 365.776,154.448 366.5,147C 365.812,136.992 360.479,132.992 350.5,135C 345.979,135.729 341.646,137.063 337.5,139C 346.968,161.066 356.635,183.066 366.5,205C 366.355,205.772 366.022,206.439 365.5,207C 362.667,208.167 359.833,209.333 357,210.5C 356.228,210.355 355.561,210.022 355,209.5C 344.776,184.718 334.276,160.051 323.5,135.5C 333.32,131.008 343.32,127.341 353.5,124.5 Z"/></g>
<g><path style="opacity:1" fill="#151515" d="M 734.5,185.5 C 734.5,184.5 734.5,183.5 734.5,182.5C 736.735,182.795 738.735,182.461 740.5,181.5C 747.204,180.658 753.037,177.991 758,173.5C 761.333,168.833 761.333,164.167 758,159.5C 754.117,154.343 749.284,150.843 743.5,149C 731.785,169.593 720.452,190.427 709.5,211.5C 708.635,212.583 707.635,212.749 706.5,212C 704.083,210.374 701.583,208.874 699,207.5C 711.239,183.029 724.073,158.696 737.5,134.5C 750.101,140.206 760.935,148.206 770,158.5C 775.39,172.557 770.89,182.057 756.5,187C 752.914,188.108 749.247,188.608 745.5,188.5C 747.781,202.573 750.448,216.573 753.5,230.5C 749.922,231.819 746.256,232.819 742.5,233.5C 741.914,233.291 741.414,232.957 741,232.5C 738.397,216.883 736.23,201.217 734.5,185.5 Z"/></g>
<g><path style="opacity:1" fill="#b1b1b1" d="M 590.5,138.5 C 588.5,138.5 586.5,138.5 584.5,138.5C 584.821,143.695 584.487,148.695 583.5,153.5C 583.5,148.167 583.5,142.833 583.5,137.5C 586.059,137.198 588.393,137.532 590.5,138.5 Z"/></g>
<g><path style="opacity:1" fill="#161616" d="M 283.5,155.5 C 286.255,157.428 288.589,159.928 290.5,163C 283.68,168.576 276.68,173.909 269.5,179C 274.253,186.507 279.253,193.84 284.5,201C 285.5,201.667 286.5,201.667 287.5,201C 292.941,197.193 298.108,193.027 303,188.5C 305.237,190.647 307.237,192.98 309,195.5C 309.688,196.332 309.521,196.998 308.5,197.5C 302.228,201.108 296.228,205.108 290.5,209.5C 295.356,217.226 300.689,224.559 306.5,231.5C 313.771,226.617 320.938,221.617 328,216.5C 330.66,218.671 332.827,221.337 334.5,224.5C 323.709,232.068 312.709,239.402 301.5,246.5C 286.028,223.862 270.361,201.362 254.5,179C 264.355,171.303 274.022,163.469 283.5,155.5 Z"/></g>
<g><path style="opacity:1" fill="#525252" d="M 594.5,158.5 C 594.5,163.5 594.5,168.5 594.5,173.5C 593.5,173.5 592.5,173.5 591.5,173.5C 593.056,168.609 594.056,163.609 594.5,158.5 Z"/></g>
<g><path style="opacity:1" fill="#606060" d="M 740.5,181.5 C 738.735,182.461 736.735,182.795 734.5,182.5C 734.5,183.5 734.5,184.5 734.5,185.5C 733.566,184.432 733.232,183.099 733.5,181.5C 735.833,181.5 738.167,181.5 740.5,181.5 Z"/></g>
<g><path style="opacity:1" fill="#161616" d="M 821.5,189.5 C 837.12,200.949 849.287,215.283 858,232.5C 864.999,250.828 859.499,263.995 841.5,272C 824.716,276.987 808.383,275.654 792.5,268C 782.855,263.504 774.188,257.671 766.5,250.5C 785.543,230.701 803.876,210.368 821.5,189.5 Z M 823.5,205.5 C 837.014,214.534 845.68,227.034 849.5,243C 845.809,257.876 836.142,265.043 820.5,264.5C 807.203,264.012 795.203,259.846 784.5,252C 783.549,251.282 783.383,250.449 784,249.5C 797.374,234.963 810.541,220.296 823.5,205.5 Z"/></g>
<g><path style="opacity:1" fill="#989898" d="M 547.5,219.5 C 541.5,219.5 535.5,219.5 529.5,219.5C 529.5,220.833 529.5,222.167 529.5,223.5C 531.415,223.216 533.081,223.549 534.5,224.5C 532.5,224.5 530.5,224.5 528.5,224.5C 528.5,222.5 528.5,220.5 528.5,218.5C 535.022,218.177 541.355,218.51 547.5,219.5 Z"/></g>
<g><path style="opacity:1" fill="#212121" d="M 547.5,219.5 C 661.656,227.959 748.49,280.626 808,377.5C 852.231,457.016 862.231,540.683 838,628.5C 824.447,672.958 802.613,712.625 772.5,747.5C 770.216,746.418 769.05,744.752 769,742.5C 839.385,656.596 860.718,559.596 833,451.5C 804.842,360.677 748.008,294.51 662.5,253C 621.824,234.631 579.157,225.131 534.5,224.5C 533.081,223.549 531.415,223.216 529.5,223.5C 529.5,222.167 529.5,220.833 529.5,219.5C 535.5,219.5 541.5,219.5 547.5,219.5 Z"/></g>
<g><path style="opacity:1" fill="#121212" d="M 207.5,219.5 C 225.057,236.556 242.557,253.889 260,271.5C 265.968,264.531 272.301,257.864 279,251.5C 282.259,254.055 284.593,257.055 286,260.5C 276.65,269.351 267.15,278.018 257.5,286.5C 239.015,266.182 219.682,246.682 199.5,228C 202.371,225.297 205.038,222.464 207.5,219.5 Z"/></g>
<g><path style="opacity:1" fill="#212121" d="M 427.5,235.5 C 431.692,235.403 433.025,237.236 431.5,241C 344.812,271.687 282.312,328.854 244,412.5C 232.947,437.825 225.447,464.158 221.5,491.5C 218.944,491.868 216.944,491.034 215.5,489C 236.506,376.362 298.506,295.362 401.5,246C 410.227,242.376 418.893,238.876 427.5,235.5 Z"/></g>
<g><path style="opacity:1" fill="#161616" d="M 164.5,266.5 C 167.877,266.959 171.211,267.626 174.5,268.5C 172.62,274.859 171.286,281.359 170.5,288C 169.797,296.967 173.797,300.634 182.5,299C 190.646,294.841 199.146,291.674 208,289.5C 213.988,289.828 218.654,292.495 222,297.5C 227.584,311.226 227.25,324.893 221,338.5C 217.522,337.686 214.355,336.352 211.5,334.5C 215.616,326.151 216.783,317.485 215,308.5C 212.647,303.574 208.814,301.74 203.5,303C 197.933,304.783 192.599,307.117 187.5,310C 174.609,315.6 166.109,311.767 162,298.5C 160.238,287.656 161.071,276.99 164.5,266.5 Z"/></g>
<g><path style="opacity:1" fill="#151515" d="M 894.5,265.5 C 901.47,273.98 908.303,282.647 915,291.5C 916.289,293.055 916.956,294.721 917,296.5C 914.646,298.58 912.146,300.08 909.5,301C 904.698,293.898 899.531,287.064 894,280.5C 886.412,285.711 878.912,291.044 871.5,296.5C 875.833,302.5 880.167,308.5 884.5,314.5C 882.144,316.69 879.644,318.69 877,320.5C 872.488,314.129 867.988,307.796 863.5,301.5C 856.028,306.472 848.695,311.639 841.5,317C 846.259,324.524 851.259,331.857 856.5,339C 854.993,341.434 852.993,343.434 850.5,345C 849.5,345.667 848.5,345.667 847.5,345C 841.374,334.579 834.874,324.412 828,314.5C 827.333,313.5 827.333,312.5 828,311.5C 850.621,296.694 872.788,281.36 894.5,265.5 Z"/></g>
<g><path style="opacity:1" fill="#1a1a1a" d="M 894.5,334.5 C 899.787,345.075 905.121,355.741 910.5,366.5C 908.401,367.965 906.234,369.299 904,370.5C 897.8,360.606 891.966,350.44 886.5,340C 889.07,337.913 891.737,336.08 894.5,334.5 Z"/></g>
<g><path style="opacity:1" fill="#161616" d="M 202.5,346.5 C 203.822,346.33 204.989,346.663 206,347.5C 206.828,351.466 207.328,355.466 207.5,359.5C 196.176,360.32 184.843,360.986 173.5,361.5C 169.134,374.097 164.467,386.597 159.5,399C 166.685,406.684 173.685,414.518 180.5,422.5C 177.638,425.188 174.472,427.521 171,429.5C 150.932,405.935 131.432,381.935 112.5,357.5C 116.344,356.018 120.344,355.185 124.5,355C 150.711,352.726 176.711,349.893 202.5,346.5 Z M 131.5,366.5 C 131.833,365.833 132.167,365.167 132.5,364.5C 143.179,363.819 153.845,363.319 164.5,363C 160.537,372.428 156.704,381.928 153,391.5C 145.968,382.975 138.802,374.641 131.5,366.5 Z"/></g>
<g><path style="opacity:1" fill="#cbcbcb" d="M 132.5,364.5 C 132.167,365.167 131.833,365.833 131.5,366.5C 130.243,365.377 130.576,364.711 132.5,364.5 Z"/></g>
<g><path style="opacity:1" fill="#151515" d="M 909.5,382.5 C 929.821,381.91 946.321,389.577 959,405.5C 963.797,411.592 967.963,418.092 971.5,425C 969.79,427.372 967.456,429.038 964.5,430C 963.365,430.749 962.365,430.583 961.5,429.5C 955.109,415.278 945.109,404.444 931.5,397C 912.01,390.492 899.51,396.992 894,416.5C 893.009,429.206 895.509,441.206 901.5,452.5C 898.996,454.624 896.163,456.29 893,457.5C 882.975,439.678 880.975,421.011 887,401.5C 891.689,391.629 899.189,385.296 909.5,382.5 Z"/></g>
<g><path style="opacity:1" fill="#a0a0a0" d="M 636.5,405.5 C 636.56,404.957 636.893,404.624 637.5,404.5C 638.466,406.396 638.799,408.396 638.5,410.5C 637.833,408.833 637.167,407.167 636.5,405.5 Z"/></g>
<g><path style="opacity:1" fill="#161616" d="M 168.5,477.5 C 167.596,478.209 167.263,479.209 167.5,480.5C 166.167,480.5 164.833,480.5 163.5,480.5C 137.892,475.51 112.226,470.843 86.5,466.5C 87.408,457.535 89.5747,448.868 93,440.5C 100.79,424.346 111.124,422.346 124,434.5C 125.608,437.382 126.941,440.382 128,443.5C 137.363,427.16 148.696,425.493 162,438.5C 169.126,450.634 171.292,463.634 168.5,477.5 Z M 107.5,438.5 C 115.816,438.977 120.983,443.31 123,451.5C 123.498,454.817 123.665,458.15 123.5,461.5C 114.461,459.882 105.461,458.049 96.5,456C 97.8034,448.534 101.47,442.701 107.5,438.5 Z M 160.5,459.5 C 160.81,462.713 160.477,465.713 159.5,468.5C 150.22,466.577 140.886,464.911 131.5,463.5C 131.841,457.645 133.674,452.312 137,447.5C 143.296,440.954 149.63,440.954 156,447.5C 158.354,451.203 159.854,455.203 160.5,459.5 Z"/></g>
<g><path style="opacity:1" fill="#adadad" d="M 160.5,459.5 C 161.806,462.687 161.806,466.02 160.5,469.5C 159.893,469.376 159.56,469.043 159.5,468.5C 160.477,465.713 160.81,462.713 160.5,459.5 Z"/></g>
<g><path style="opacity:1" fill="#161616" d="M 977.5,475.5 C 977.5,476.5 977.5,477.5 977.5,478.5C 976.209,478.263 975.209,478.596 974.5,479.5C 951.463,481.467 928.463,483.8 905.5,486.5C 906.829,495.795 907.829,505.129 908.5,514.5C 904.878,514.868 901.378,514.868 898,514.5C 897.162,501.778 895.996,489.111 894.5,476.5C 921.365,473.496 948.199,470.163 975,466.5C 975.772,466.645 976.439,466.978 977,467.5C 977.497,470.146 977.664,472.813 977.5,475.5 Z"/></g>
<g><path style="opacity:1" fill="#acacac" d="M 977.5,475.5 C 978.434,476.568 978.768,477.901 978.5,479.5C 977.167,479.5 975.833,479.5 974.5,479.5C 975.209,478.596 976.209,478.263 977.5,478.5C 977.5,477.5 977.5,476.5 977.5,475.5 Z"/></g>
<g><path style="opacity:1" fill="#7f7f7f" d="M 168.5,477.5 C 168.5,478.833 168.5,480.167 168.5,481.5C 166.585,481.784 164.919,481.451 163.5,480.5C 164.833,480.5 166.167,480.5 167.5,480.5C 167.263,479.209 167.596,478.209 168.5,477.5 Z"/></g>
<g><path style="opacity:1" fill="#b1b1b1" d="M 660.5,499.5 C 661.885,500.947 661.552,501.947 659.5,502.5C 660.11,501.609 660.443,500.609 660.5,499.5 Z"/></g>
<g><path style="opacity:1" fill="#a2a2a2" d="M 87.5,504.5 C 85.8333,504.5 84.1667,504.5 82.5,504.5C 82.8064,507.385 82.4731,510.052 81.5,512.5C 81.5,509.5 81.5,506.5 81.5,503.5C 83.7354,503.205 85.7354,503.539 87.5,504.5 Z"/></g>
<g><path style="opacity:1" fill="#949494" d="M 657.5,510.5 C 657.917,509.876 658.584,509.543 659.5,509.5C 661.418,509.861 661.751,510.528 660.5,511.5C 659.791,510.596 658.791,510.263 657.5,510.5 Z"/></g>
<g><path style="opacity:1" fill="#131313" d="M 973.5,540.5 C 975.265,541.461 977.265,541.795 979.5,541.5C 979.5,545.167 979.5,548.833 979.5,552.5C 955.488,551.03 931.155,549.697 906.5,548.5C 904.052,547.527 901.385,547.194 898.5,547.5C 898.5,545.167 898.5,542.833 898.5,540.5C 898.34,538.801 898.506,537.134 899,535.5C 923.743,537.77 948.577,539.436 973.5,540.5 Z"/></g>
<g><path style="opacity:1" fill="#5b5b5b" d="M 973.5,540.5 C 975.833,540.5 978.167,540.5 980.5,540.5C 980.817,544.702 980.483,548.702 979.5,552.5C 979.5,548.833 979.5,545.167 979.5,541.5C 977.265,541.795 975.265,541.461 973.5,540.5 Z"/></g>
<g><path style="opacity:1" fill="#a2a2a2" d="M 898.5,540.5 C 898.5,542.833 898.5,545.167 898.5,547.5C 901.385,547.194 904.052,547.527 906.5,548.5C 903.5,548.5 900.5,548.5 897.5,548.5C 897.194,545.615 897.527,542.948 898.5,540.5 Z"/></g>
<g><path style="opacity:1" fill="#1f1d23" d="M 730.5,720.5 C 698.816,721.159 667.482,720.493 636.5,718.5C 645.961,703.245 654.128,687.245 661,670.5C 665.05,658.631 664.05,647.298 658,636.5C 652.707,631.402 646.374,629.068 639,629.5C 618.022,631.143 603.022,641.476 594,660.5C 591.441,665.617 592.274,669.95 596.5,673.5C 598.966,674.634 601.633,674.801 604.5,674C 605.056,673.617 605.389,673.117 605.5,672.5C 609.313,670.851 611.979,668.018 613.5,664C 612.302,661.302 610.302,659.469 607.5,658.5C 606.417,657.635 606.251,656.635 607,655.5C 614.414,645.473 623.914,642.306 635.5,646C 642.518,651.224 644.685,658.057 642,666.5C 633.648,688.272 618.148,702.105 595.5,708C 585.049,710.294 574.716,709.96 564.5,707C 549.231,698.244 543.398,685.078 547,667.5C 550.51,650.817 557.51,635.817 568,622.5C 597.755,586.039 636.255,566.706 683.5,564.5C 724.839,565.014 748.005,585.68 753,626.5C 753.665,634.536 753.331,642.536 752,650.5C 748.093,668.704 743.426,686.704 738,704.5C 736.271,710.286 733.771,715.62 730.5,720.5 Z"/></g>
<g><path style="opacity:1" fill="#161616" d="M 917.5,572.5 C 942.801,570.56 960.301,581.226 970,604.5C 974.749,623.346 970.249,639.513 956.5,653C 934.105,664.794 914.272,661.294 897,642.5C 892.974,636.76 890.307,630.426 889,623.5C 885.333,632.5 881.667,641.5 878,650.5C 874.752,648.793 871.585,646.96 868.5,645C 877.752,625.998 886.585,606.831 895,587.5C 900.626,579.609 908.126,574.609 917.5,572.5 Z M 920.5,584.5 C 938.075,583.534 951.242,590.534 960,605.5C 966.119,623.415 960.952,636.915 944.5,646C 928.22,649.906 914.386,645.739 903,633.5C 892.708,618.409 893.875,604.242 906.5,591C 910.877,587.975 915.544,585.808 920.5,584.5 Z"/></g>
<g><path style="opacity:1" fill="#b2b2b2" d="M 253.5,603.5 C 253.263,604.791 253.596,605.791 254.5,606.5C 254.5,607.167 254.5,607.833 254.5,608.5C 253.833,609.5 253.167,610.5 252.5,611.5C 252.194,608.615 252.527,605.948 253.5,603.5 Z"/></g>
<g><path style="opacity:1" fill="#171717" d="M 144.5,631.5 C 145.289,631.217 145.956,630.717 146.5,630C 144.866,629.506 143.199,629.34 141.5,629.5C 124.489,629.581 107.489,629.247 90.5,628.5C 90.0949,624.952 90.5949,621.619 92,618.5C 116.771,620.134 141.604,621.634 166.5,623C 153.655,635.012 140.988,647.179 128.5,659.5C 144.322,664.289 160.322,668.456 176.5,672C 176.957,672.414 177.291,672.914 177.5,673.5C 158.584,688.204 139.417,702.537 120,716.5C 118.021,714.605 116.021,712.605 114,710.5C 113.333,709.833 113.333,709.167 114,708.5C 128.833,697.667 143.667,686.833 158.5,676C 142.268,672.277 126.268,667.943 110.5,663C 121.675,652.26 133.009,641.76 144.5,631.5 Z"/></g>
<g><path style="opacity:1" fill="#bbbbbb" d="M 141.5,629.5 C 143.199,629.34 144.866,629.506 146.5,630C 145.956,630.717 145.289,631.217 144.5,631.5C 143.5,630.833 142.5,630.167 141.5,629.5 Z"/></g>
<g><path style="opacity:1" fill="#b0b0b0" d="M 244.5,633.5 C 245.643,636.976 245.81,640.642 245,644.5C 244.487,643.473 243.987,642.473 243.5,641.5C 244.473,639.052 244.806,636.385 244.5,633.5 Z"/></g>
<g><path style="opacity:1" fill="#151515" d="M 880.5,671.5 C 889.556,671.509 898.223,673.343 906.5,677C 920.149,683.49 933.482,690.49 946.5,698C 944.873,700.754 943.373,703.588 942,706.5C 941.439,707.022 940.772,707.355 940,707.5C 927.085,700.292 913.918,693.458 900.5,687C 890.779,682.445 881.112,682.445 871.5,687C 860.645,696.699 858.812,707.866 866,720.5C 869.912,725.083 874.412,728.917 879.5,732C 892.74,739.452 906.074,746.618 919.5,753.5C 917.921,756.994 916.087,760.327 914,763.5C 898.659,756.136 883.825,747.969 869.5,739C 849.629,724.055 846.129,705.888 859,684.5C 864.645,677.437 871.811,673.103 880.5,671.5 Z"/></g>
<g><path style="opacity:1" fill="#707072" d="M 605.5,672.5 C 605.389,673.117 605.056,673.617 604.5,674C 601.633,674.801 598.966,674.634 596.5,673.5C 599.57,673.632 602.57,673.299 605.5,672.5 Z"/></g>
<g><path style="opacity:1" fill="#191919" d="M 379.5,681.5 C 394.326,681.08 406.659,686.413 416.5,697.5C 426.496,709.493 433.33,723.159 437,738.5C 455.288,801.106 458.288,864.439 446,928.5C 443.288,940.015 439.955,951.348 436,962.5C 435.218,965.216 433.884,967.55 432,969.5C 430.189,968.922 428.355,968.422 426.5,968C 425.978,967.439 425.645,966.772 425.5,966C 439.392,929.32 446.058,891.32 445.5,852C 445.257,812.968 439.424,774.802 428,737.5C 423.911,720.797 415.411,706.964 402.5,696C 383.155,685.112 368.322,689.612 358,709.5C 350.123,730.563 349.456,751.896 356,773.5C 359.333,781.5 362.667,789.5 366,797.5C 370.621,814.871 368.954,831.538 361,847.5C 358.542,846.36 356.375,844.86 354.5,843C 359.78,832.047 361.613,820.547 360,808.5C 355.733,795.032 351.066,781.699 346,768.5C 342.405,750.415 342.739,732.415 347,714.5C 352.09,697.578 362.924,686.578 379.5,681.5 Z"/></g>
<g><path style="opacity:1" fill="#171717" d="M 199.5,753.5 C 206.687,753.175 213.687,753.509 220.5,754.5C 206.906,772.605 193.073,790.605 179,808.5C 178.311,809.357 177.478,810.023 176.5,810.5C 174.972,809.139 173.305,807.972 171.5,807C 169.789,805.867 169.289,804.367 170,802.5C 181.525,789.277 192.691,775.777 203.5,762C 186.833,761.667 170.167,761.333 153.5,761C 161.969,747.89 170.302,734.723 178.5,721.5C 179.289,721.217 179.956,720.717 180.5,720C 179.251,719.26 178.251,719.427 177.5,720.5C 161.815,724.171 146.148,728.005 130.5,732C 128.741,732.798 127.074,732.631 125.5,731.5C 124.885,728.961 124.218,726.461 123.5,724C 148.393,717.858 173.393,712.525 198.5,708C 188.792,722.58 179.458,737.414 170.5,752.5C 180.144,753.498 189.81,753.832 199.5,753.5 Z"/></g>
<g><path style="opacity:1" fill="#a6a6a6" d="M 177.5,720.5 C 178.251,719.427 179.251,719.26 180.5,720C 179.956,720.717 179.289,721.217 178.5,721.5C 178.5,720.833 178.167,720.5 177.5,720.5 Z"/></g>
<g><path style="opacity:1" fill="#c8c8c9" d="M 636.5,718.5 C 667.482,720.493 698.816,721.159 730.5,720.5C 699.004,721.498 667.338,721.832 635.5,721.5C 635.263,720.209 635.596,719.209 636.5,718.5 Z"/></g>
<g><path style="opacity:1" fill="#27252b" d="M 621.5,723.5 C 661.501,723.333 701.501,723.5 741.5,724C 747.097,726.567 747.931,730.4 744,735.5C 742.062,738.106 739.562,739.939 736.5,741C 695.167,741.667 653.833,741.667 612.5,741C 611.584,740.626 610.75,740.126 610,739.5C 609.355,730.974 613.189,725.641 621.5,723.5 Z"/></g>
<g><path style="opacity:1" fill="#151515" d="M 825.5,741.5 C 846.669,759.166 868.002,776.666 889.5,794C 882.167,804 874.833,814 867.5,824C 866.833,824.667 866.167,824.667 865.5,824C 863.269,822.39 861.269,820.557 859.5,818.5C 864.471,811.395 869.804,804.562 875.5,798C 868,791.833 860.5,785.667 853,779.5C 848.711,785.245 844.544,791.079 840.5,797C 837.608,796.459 835.108,794.959 833,792.5C 832.333,791.5 832.333,790.5 833,789.5C 837.618,784.427 842.118,779.26 846.5,774C 839.874,769.043 833.54,763.709 827.5,758C 825.097,757.37 823.263,758.203 822,760.5C 817.333,766.5 812.667,772.5 808,778.5C 805.333,776.5 802.667,774.5 800,772.5C 799.333,771.833 799.333,771.167 800,770.5C 808.978,761.177 817.478,751.51 825.5,741.5 Z"/></g>
<g><path style="opacity:1" fill="#211f25" d="M 593.5,745.5 C 646.168,745.333 698.834,745.5 751.5,746C 754.705,747.415 756.372,749.915 756.5,753.5C 754.376,762.791 748.709,768.624 739.5,771C 687.833,771.667 636.167,771.667 584.5,771C 581.333,770.5 579.5,768.667 579,765.5C 578.416,762.743 578.75,760.077 580,757.5C 583.454,752.206 587.954,748.206 593.5,745.5 Z"/></g>
<g><path style="opacity:1" fill="#959595" d="M 199.5,753.5 C 206.677,752.181 214.01,752.181 221.5,753.5C 221.376,754.107 221.043,754.44 220.5,754.5C 213.687,753.509 206.687,753.175 199.5,753.5 Z"/></g>
<g><path style="opacity:1" fill="#191919" d="M 228.5,767.5 C 231.526,768.174 234.526,769.007 237.5,770C 238.022,770.561 238.355,771.228 238.5,772C 231.667,789.833 224.833,807.667 218,825.5C 217.251,826.635 217.417,827.635 218.5,828.5C 237.894,822.702 257.227,816.702 276.5,810.5C 278.119,813.642 279.119,816.976 279.5,820.5C 253.776,827.297 228.109,834.297 202.5,841.5C 211.167,816.833 219.833,792.167 228.5,767.5 Z"/></g>
<g><path style="opacity:1" fill="#2a282e" d="M 588.5,775.5 C 634.835,775.333 681.168,775.5 727.5,776C 732.194,778.785 732.694,782.285 729,786.5C 726.9,789.467 724.066,791.3 720.5,792C 674.5,792.667 628.5,792.667 582.5,792C 578.416,789.743 577.583,786.576 580,782.5C 582.441,779.546 585.275,777.213 588.5,775.5 Z"/></g>
<g><path style="opacity:1" fill="#1f1d23" d="M 576.5,972.5 C 575.833,971.833 575.167,971.167 574.5,970.5C 571.527,956.138 568.361,941.804 565,927.5C 536.355,944.237 507.522,960.57 478.5,976.5C 514.559,916.056 550.893,855.723 587.5,795.5C 628.828,794.5 670.161,794.167 711.5,794.5C 697.101,848.761 681.768,902.761 665.5,956.5C 654.542,942.873 643.208,929.54 631.5,916.5C 613.145,935.187 594.812,953.854 576.5,972.5 Z"/></g>
<g><path style="opacity:1" fill="#999999" d="M 319.5,810.5 C 320.812,815.015 320.812,819.682 319.5,824.5C 318.893,824.376 318.56,824.043 318.5,823.5C 319.485,819.366 319.818,815.032 319.5,810.5 Z"/></g>
<g><path style="opacity:1" fill="#181818" d="M 289.5,822.5 C 293.327,824.153 295.827,826.819 297,830.5C 281.589,846.573 266.922,863.24 253,880.5C 251.951,881.517 250.784,881.684 249.5,881C 247.107,878.972 245.274,876.805 244,874.5C 259.375,857.295 274.542,839.962 289.5,822.5 Z"/></g>
<g><path style="opacity:1" fill="#171717" d="M 311.5,840.5 C 315.432,841.468 318.766,843.468 321.5,846.5C 307.805,865.695 294.305,885.029 281,904.5C 278.167,902.333 275.333,900.167 272.5,898C 286.529,879.482 299.529,860.315 311.5,840.5 Z"/></g>
<g><path style="opacity:1" fill="#212121" d="M 839.5,847.5 C 842.084,847.569 844.084,848.735 845.5,851C 803.842,891.926 756.009,923.76 702,946.5C 701.694,944.049 702.194,941.716 703.5,939.5C 754.745,917.238 800.078,886.571 839.5,847.5 Z"/></g>
<g><path style="opacity:1" fill="#181818" d="M 340.5,857.5 C 343.643,859.242 346.643,861.242 349.5,863.5C 337.467,883.704 325.634,904.037 314,924.5C 311.913,923.206 309.746,922.039 307.5,921C 305.789,919.867 305.289,918.367 306,916.5C 318.016,897.134 329.516,877.468 340.5,857.5 Z"/></g>
<g><path style="opacity:1" fill="#a3a3a7" d="M 574.5,970.5 C 575.167,971.167 575.833,971.833 576.5,972.5C 576.44,973.043 576.107,973.376 575.5,973.5C 574.614,972.675 574.281,971.675 574.5,970.5 Z"/></g>
<g><path style="opacity:1" fill="#e3e4e3" d="M 478.5,976.5 C 477.833,977.167 477.833,977.167 478.5,976.5 Z"/></g>
</svg>